+ filenameToUse=/home/horvathandras/vatic/vatic/public/videouploads/DJI_0043_30m_szarvasragas_homokmegy_20180603_napos_napraforgo_T3.avi
+ filenameNoDot=DJI_0043_30m_szarvasragas_homokmegy_20180603_napos_napraforgo_T3
+ FullUploadPath=/home/horvathandras/vatic/vatic/public/videouploads/DJI_0043_30m_szarvasragas_homokmegy_20180603_napos_napraforgo_T3.avi
+ VideoDataDir=/home/horvathandras/vatic/vatic/videos
+ AvailableObjectTypes='PozitívROI NegatívROI Túrás ~Friss ~1-2Hetes ~Régebbi ~Egyéb1 ~Egyéb2 ~Egyéb3 Rágás ~Friss ~1-2Hetes ~Régebbi ~Egyéb1 ~Egyéb2 ~Egyéb3 Törés ~Friss ~1-2Hetes ~Régebbi ~Egyéb1 ~Egyéb2 ~Egyéb3 Taposás ~Friss ~1-2Hetes ~Régebbi ~Egyéb1 ~Egyéb2 ~Egyéb3 EgészségesNövény Egyéb1 Egyéb2 Egyéb3 Egyéb4 Egyéb5 Bizonytalan Művelőút Gktaposás Vetőhiba Széldöntés Jégkár Belvíz Aszály Erózió EgyszikűGyom KétszikűGyom EgyébNövvédelmiPR'
++ dirname /home/horvathandras/vatic/vatic/vatic_publisher.sh
+ cd /home/horvathandras/vatic/vatic
+ touch /home/horvathandras/vatic/vatic/public/videouploads/DJI_0043_30m_szarvasragas_homokmegy_20180603_napos_napraforgo_T3.avi
+ chmod 744 /home/horvathandras/vatic/vatic/public/videouploads/DJI_0043_30m_szarvasragas_homokmegy_20180603_napos_napraforgo_T3.avi
+ mkdir /home/horvathandras/vatic/vatic/videos/DJI_0043_30m_szarvasragas_homokmegy_20180603_napos_napraforgo_T3
+ turkic extract /home/horvathandras/vatic/vatic/public/videouploads/DJI_0043_30m_szarvasragas_homokmegy_20180603_napos_napraforgo_T3.avi /home/horvathandras/vatic/vatic/videos/DJI_0043_30m_szarvasragas_homokmegy_20180603_napos_napraforgo_T3 --no-resize
ffmpeg version 2.8.14-0ubuntu0.16.04.1 Copyright (c) 2000-2018 the FFmpeg developers
  built with gcc 5.4.0 (Ubuntu 5.4.0-6ubuntu1~16.04.9) 20160609
  configuration: --prefix=/usr --extra-version=0ubuntu0.16.04.1 --build-suffix=-ffmpeg --toolchain=hardened --libdir=/usr/lib/x86_64-linux-gnu --incdir=/usr/include/x86_64-linux-gnu --cc=cc --cxx=g++ --enable-gpl --enable-shared --disable-stripping --disable-decoder=libopenjpeg --disable-decoder=libschroedinger --enable-avresample --enable-avisynth --enable-gnutls --enable-ladspa --enable-libass --enable-libbluray --enable-libbs2b --enable-libcaca --enable-libcdio --enable-libflite --enable-libfontconfig --enable-libfreetype --enable-libfribidi --enable-libgme --enable-libgsm --enable-libmodplug --enable-libmp3lame --enable-libopenjpeg --enable-libopus --enable-libpulse --enable-librtmp --enable-libschroedinger --enable-libshine --enable-libsnappy --enable-libsoxr --enable-libspeex --enable-libssh --enable-libtheora --enable-libtwolame --enable-libvorbis --enable-libvpx --enable-libwavpack --enable-libwebp --enable-libx265 --enable-libxvid --enable-libzvbi --enable-openal --enable-opengl --enable-x11grab --enable-libdc1394 --enable-libiec61883 --enable-libzmq --enable-frei0r --enable-libx264 --enable-libopencv
  libavutil      54. 31.100 / 54. 31.100
  libavcodec     56. 60.100 / 56. 60.100
  libavformat    56. 40.101 / 56. 40.101
  libavdevice    56.  4.100 / 56.  4.100
  libavfilter     5. 40.101 /  5. 40.101
  libavresample   2.  1.  0 /  2.  1.  0
  libswscale      3.  1.101 /  3.  1.101
  libswresample   1.  2.101 /  1.  2.101
  libpostproc    53.  3.100 / 53.  3.100
Input #0, mov,mp4,m4a,3gp,3g2,mj2, from '/home/horvathandras/vatic/vatic/public/videouploads/DJI_0043_30m_szarvasragas_homokmegy_20180603_napos_napraforgo_T3.avi':
  Metadata:
    major_brand     : qt  
    minor_version   : 537986816
    compatible_brands: qt  
    creation_time   : 2018-06-03 08:32:52
    location        : +46.518987+19.145859+30.000
    location-{    : +46.518987+19.145859+30.000
    comment         : DE=None, Mode=P, DSW=0001
  Duration: 00:00:22.14, start: 0.000000, bitrate: 100646 kb/s
    Stream #0:0(eng): Video: h264 (High) (avc1 / 0x31637661), yuv420p(tv, bt709), 4096x2160 [SAR 1:1 DAR 256:135], 100637 kb/s, 50 fps, 50 tbr, 50k tbn, 100 tbc (default)
    Metadata:
      creation_time   : 2018-06-03 08:32:52
      handler_name    : DJI.AVC
      encoder         : AVC encoder
    Stream #0:1(eng): Data: none (priv / 0x76697270), 4 kb/s
    Metadata:
      creation_time   : 2018-06-03 08:32:52
      handler_name    : DJI.Meta
Please use -b:a or -b:v, -b is ambiguous
[swscaler @ 0x17298c0] deprecated pixel format used, make sure you did set range correctly
Output #0, image2, to '/tmp/pyvision-ffmpeg-499417873/%d.jpg':
  Metadata:
    major_brand     : qt  
    minor_version   : 537986816
    compatible_brands: qt  
    comment         : DE=None, Mode=P, DSW=0001
    location        : +46.518987+19.145859+30.000
    location-{    : +46.518987+19.145859+30.000
    encoder         : Lavf56.40.101
    Stream #0:0(eng): Video: mjpeg, yuvj420p(pc), 4096x2160 [SAR 1:1 DAR 256:135], q=2-31, 10000 kb/s, 50 fps, 50 tbn, 50 tbc (default)
    Metadata:
      creation_time   : 2018-06-03 08:32:52
      handler_name    : DJI.AVC
      encoder         : Lavc56.60.100 mjpeg
Stream mapping:
  Stream #0:0 -> #0:0 (h264 (native) -> mjpeg (native))
Press [q] to stop, [?] for help
frame=    1 fps=0.7 q=20.1 size=N/A time=00:00:00.02 bitrate=N/A    frame=    3 fps=1.5 q=24.4 size=N/A time=00:00:00.06 bitrate=N/A    frame=    5 fps=1.8 q=24.8 size=N/A time=00:00:00.10 bitrate=N/A    frame=    7 fps=2.1 q=24.8 size=N/A time=00:00:00.14 bitrate=N/A    frame=    9 fps=2.3 q=24.8 size=N/A time=00:00:00.18 bitrate=N/A    frame=   11 fps=2.4 q=24.8 size=N/A time=00:00:00.22 bitrate=N/A    frame=   13 fps=2.6 q=24.8 size=N/A time=00:00:00.26 bitrate=N/A    frame=   15 fps=2.7 q=24.8 size=N/A time=00:00:00.30 bitrate=N/A    frame=   17 fps=2.8 q=24.8 size=N/A time=00:00:00.34 bitrate=N/A    frame=   20 fps=2.9 q=24.8 size=N/A time=00:00:00.40 bitrate=N/A    frame=   22 fps=2.9 q=24.8 size=N/A time=00:00:00.44 bitrate=N/A    frame=   25 fps=3.0 q=24.8 size=N/A time=00:00:00.50 bitrate=N/A    frame=   28 fps=3.1 q=24.8 size=N/A time=00:00:00.56 bitrate=N/A    frame=   30 fps=3.1 q=24.8 size=N/A time=00:00:00.60 bitrate=N/A    frame=   32 fps=3.1 q=24.8 size=N/A time=00:00:00.64 bitrate=N/A    frame=   34 fps=3.2 q=24.8 size=N/A time=00:00:00.68 bitrate=N/A    frame=   37 fps=3.3 q=24.8 size=N/A time=00:00:00.74 bitrate=N/A    frame=   40 fps=3.3 q=24.8 size=N/A time=00:00:00.80 bitrate=N/A    frame=   42 fps=3.4 q=24.8 size=N/A time=00:00:00.84 bitrate=N/A    frame=   45 fps=3.4 q=24.8 size=N/A time=00:00:00.90 bitrate=N/A    frame=   48 fps=3.5 q=24.8 size=N/A time=00:00:00.96 bitrate=N/A    frame=   51 fps=3.6 q=24.8 size=N/A time=00:00:01.02 bitrate=N/A    frame=   54 fps=3.6 q=24.8 size=N/A time=00:00:01.08 bitrate=N/A    frame=   56 fps=3.6 q=24.8 size=N/A time=00:00:01.12 bitrate=N/A    frame=   59 fps=3.6 q=24.8 size=N/A time=00:00:01.18 bitrate=N/A    frame=   62 fps=3.6 q=24.8 size=N/A time=00:00:01.24 bitrate=N/A    frame=   65 fps=3.6 q=24.8 size=N/A time=00:00:01.30 bitrate=N/A    frame=   67 fps=3.6 q=24.8 size=N/A time=00:00:01.34 bitrate=N/A    frame=   69 fps=3.6 q=24.8 size=N/A time=00:00:01.38 bitrate=N/A    frame=   71 fps=3.6 q=24.8 size=N/A time=00:00:01.42 bitrate=N/A    frame=   74 fps=3.6 q=24.8 size=N/A time=00:00:01.48 bitrate=N/A    frame=   76 fps=3.6 q=24.8 size=N/A time=00:00:01.52 bitrate=N/A    frame=   78 fps=3.6 q=24.8 size=N/A time=00:00:01.56 bitrate=N/A    frame=   81 fps=3.6 q=24.8 size=N/A time=00:00:01.62 bitrate=N/A    frame=   83 fps=3.6 q=24.8 size=N/A time=00:00:01.66 bitrate=N/A    frame=   85 fps=3.6 q=24.8 size=N/A time=00:00:01.70 bitrate=N/A    frame=   87 fps=3.6 q=24.8 size=N/A time=00:00:01.74 bitrate=N/A    frame=   90 fps=3.6 q=24.8 size=N/A time=00:00:01.80 bitrate=N/A    frame=   93 fps=3.7 q=24.8 size=N/A time=00:00:01.86 bitrate=N/A    frame=   95 fps=3.7 q=24.8 size=N/A time=00:00:01.90 bitrate=N/A    frame=   97 fps=3.7 q=24.8 size=N/A time=00:00:01.94 bitrate=N/A    frame=   99 fps=3.7 q=24.8 size=N/A time=00:00:01.98 bitrate=N/A    frame=  102 fps=3.7 q=24.8 size=N/A time=00:00:02.04 bitrate=N/A    frame=  104 fps=3.6 q=24.8 size=N/A time=00:00:02.08 bitrate=N/A    frame=  106 fps=3.6 q=24.8 size=N/A time=00:00:02.12 bitrate=N/A    frame=  109 fps=3.6 q=24.8 size=N/A time=00:00:02.18 bitrate=N/A    frame=  112 fps=3.7 q=24.8 size=N/A time=00:00:02.24 bitrate=N/A    frame=  115 fps=3.7 q=24.8 size=N/A time=00:00:02.30 bitrate=N/A    frame=  117 fps=3.7 q=24.8 size=N/A time=00:00:02.34 bitrate=N/A    frame=  120 fps=3.7 q=24.8 size=N/A time=00:00:02.40 bitrate=N/A    frame=  123 fps=3.7 q=24.8 size=N/A time=00:00:02.46 bitrate=N/A    frame=  126 fps=3.7 q=24.8 size=N/A time=00:00:02.52 bitrate=N/A    frame=  128 fps=3.7 q=24.8 size=N/A time=00:00:02.56 bitrate=N/A    frame=  130 fps=3.7 q=24.8 size=N/A time=00:00:02.60 bitrate=N/A    frame=  133 fps=3.7 q=24.8 size=N/A time=00:00:02.66 bitrate=N/A    frame=  135 fps=3.7 q=24.8 size=N/A time=00:00:02.70 bitrate=N/A    frame=  137 fps=3.7 q=24.8 size=N/A time=00:00:02.74 bitrate=N/A    frame=  139 fps=3.7 q=24.8 size=N/A time=00:00:02.78 bitrate=N/A    frame=  142 fps=3.7 q=24.8 size=N/A time=00:00:02.84 bitrate=N/A    frame=  145 fps=3.7 q=24.8 size=N/A time=00:00:02.90 bitrate=N/A    frame=  148 fps=3.7 q=24.8 size=N/A time=00:00:02.96 bitrate=N/A    frame=  150 fps=3.7 q=24.8 size=N/A time=00:00:03.00 bitrate=N/A    frame=  152 fps=3.7 q=24.8 size=N/A time=00:00:03.04 bitrate=N/A    frame=  154 fps=3.7 q=24.8 size=N/A time=00:00:03.08 bitrate=N/A    frame=  156 fps=3.7 q=24.8 size=N/A time=00:00:03.12 bitrate=N/A    frame=  158 fps=3.7 q=24.8 size=N/A time=00:00:03.16 bitrate=N/A    frame=  160 fps=3.7 q=24.8 size=N/A time=00:00:03.20 bitrate=N/A    frame=  162 fps=3.7 q=24.8 size=N/A time=00:00:03.24 bitrate=N/A    frame=  164 fps=3.7 q=24.8 size=N/A time=00:00:03.28 bitrate=N/A    frame=  167 fps=3.7 q=24.8 size=N/A time=00:00:03.34 bitrate=N/A    frame=  169 fps=3.7 q=24.8 size=N/A time=00:00:03.38 bitrate=N/A    frame=  172 fps=3.7 q=24.8 size=N/A time=00:00:03.44 bitrate=N/A    frame=  174 fps=3.7 q=24.8 size=N/A time=00:00:03.48 bitrate=N/A    frame=  176 fps=3.7 q=24.8 size=N/A time=00:00:03.52 bitrate=N/A    frame=  178 fps=3.7 q=24.8 size=N/A time=00:00:03.56 bitrate=N/A    frame=  181 fps=3.7 q=24.8 size=N/A time=00:00:03.62 bitrate=N/A    frame=  183 fps=3.7 q=24.8 size=N/A time=00:00:03.66 bitrate=N/A    frame=  185 fps=3.7 q=24.8 size=N/A time=00:00:03.70 bitrate=N/A    frame=  187 fps=3.7 q=24.8 size=N/A time=00:00:03.74 bitrate=N/A    frame=  190 fps=3.7 q=24.8 size=N/A time=00:00:03.80 bitrate=N/A    frame=  192 fps=3.7 q=24.8 size=N/A time=00:00:03.84 bitrate=N/A    frame=  194 fps=3.7 q=24.8 size=N/A time=00:00:03.88 bitrate=N/A    frame=  197 fps=3.7 q=24.8 size=N/A time=00:00:03.94 bitrate=N/A    frame=  199 fps=3.7 q=24.8 size=N/A time=00:00:03.98 bitrate=N/A    frame=  201 fps=3.7 q=24.8 size=N/A time=00:00:04.02 bitrate=N/A    frame=  205 fps=3.7 q=24.8 size=N/A time=00:00:04.10 bitrate=N/A    frame=  207 fps=3.7 q=24.8 size=N/A time=00:00:04.14 bitrate=N/A    frame=  209 fps=3.7 q=24.8 size=N/A time=00:00:04.18 bitrate=N/A    frame=  211 fps=3.7 q=24.8 size=N/A time=00:00:04.22 bitrate=N/A    frame=  213 fps=3.7 q=24.8 size=N/A time=00:00:04.26 bitrate=N/A    frame=  216 fps=3.7 q=24.8 size=N/A time=00:00:04.32 bitrate=N/A    frame=  219 fps=3.7 q=24.8 size=N/A time=00:00:04.38 bitrate=N/A    frame=  222 fps=3.7 q=24.8 size=N/A time=00:00:04.44 bitrate=N/A    frame=  224 fps=3.7 q=24.8 size=N/A time=00:00:04.48 bitrate=N/A    frame=  227 fps=3.7 q=24.8 size=N/A time=00:00:04.54 bitrate=N/A    frame=  230 fps=3.7 q=24.8 size=N/A time=00:00:04.60 bitrate=N/A    frame=  232 fps=3.7 q=24.8 size=N/A time=00:00:04.64 bitrate=N/A    frame=  235 fps=3.7 q=24.8 size=N/A time=00:00:04.70 bitrate=N/A    frame=  238 fps=3.7 q=24.8 size=N/A time=00:00:04.76 bitrate=N/A    frame=  241 fps=3.8 q=24.8 size=N/A time=00:00:04.82 bitrate=N/A    frame=  243 fps=3.8 q=24.8 size=N/A time=00:00:04.86 bitrate=N/A    frame=  245 fps=3.8 q=24.8 size=N/A time=00:00:04.90 bitrate=N/A    frame=  247 fps=3.8 q=24.8 size=N/A time=00:00:04.94 bitrate=N/A    frame=  249 fps=3.8 q=24.8 size=N/A time=00:00:04.98 bitrate=N/A    frame=  251 fps=3.7 q=24.8 size=N/A time=00:00:05.02 bitrate=N/A    frame=  253 fps=3.7 q=24.8 size=N/A time=00:00:05.06 bitrate=N/A    frame=  255 fps=3.7 q=24.8 size=N/A time=00:00:05.10 bitrate=N/A    frame=  258 fps=3.8 q=24.8 size=N/A time=00:00:05.16 bitrate=N/A    frame=  260 fps=3.8 q=24.8 size=N/A time=00:00:05.20 bitrate=N/A    frame=  263 fps=3.8 q=24.8 size=N/A time=00:00:05.26 bitrate=N/A    frame=  265 fps=3.8 q=24.8 size=N/A time=00:00:05.30 bitrate=N/A    frame=  267 fps=3.8 q=24.8 size=N/A time=00:00:05.34 bitrate=N/A    frame=  269 fps=3.7 q=24.8 size=N/A time=00:00:05.38 bitrate=N/A    frame=  271 fps=3.7 q=24.8 size=N/A time=00:00:05.42 bitrate=N/A    frame=  274 fps=3.7 q=24.8 size=N/A time=00:00:05.48 bitrate=N/A    frame=  277 fps=3.8 q=24.8 size=N/A time=00:00:05.54 bitrate=N/A    frame=  279 fps=3.7 q=24.8 size=N/A time=00:00:05.58 bitrate=N/A    frame=  282 fps=3.8 q=24.8 size=N/A time=00:00:05.64 bitrate=N/A    frame=  284 fps=3.8 q=24.8 size=N/A time=00:00:05.68 bitrate=N/A    frame=  286 fps=3.7 q=24.8 size=N/A time=00:00:05.72 bitrate=N/A    frame=  289 fps=3.7 q=24.8 size=N/A time=00:00:05.78 bitrate=N/A    frame=  292 fps=3.8 q=24.8 size=N/A time=00:00:05.84 bitrate=N/A    frame=  295 fps=3.8 q=24.8 size=N/A time=00:00:05.90 bitrate=N/A    frame=  298 fps=3.8 q=24.8 size=N/A time=00:00:05.96 bitrate=N/A    frame=  301 fps=3.8 q=24.8 size=N/A time=00:00:06.02 bitrate=N/A    frame=  303 fps=3.8 q=24.8 size=N/A time=00:00:06.06 bitrate=N/A    frame=  306 fps=3.8 q=24.8 size=N/A time=00:00:06.12 bitrate=N/A    frame=  309 fps=3.8 q=24.8 size=N/A time=00:00:06.18 bitrate=N/A    frame=  312 fps=3.8 q=24.8 size=N/A time=00:00:06.24 bitrate=N/A    frame=  315 fps=3.8 q=24.8 size=N/A time=00:00:06.30 bitrate=N/A    frame=  318 fps=3.8 q=24.8 size=N/A time=00:00:06.36 bitrate=N/A    frame=  320 fps=3.8 q=24.8 size=N/A time=00:00:06.40 bitrate=N/A    frame=  322 fps=3.8 q=24.8 size=N/A time=00:00:06.44 bitrate=N/A    frame=  325 fps=3.8 q=24.8 size=N/A time=00:00:06.50 bitrate=N/A    frame=  327 fps=3.8 q=24.8 size=N/A time=00:00:06.54 bitrate=N/A    frame=  330 fps=3.8 q=24.8 size=N/A time=00:00:06.60 bitrate=N/A    frame=  333 fps=3.8 q=24.8 size=N/A time=00:00:06.66 bitrate=N/A    frame=  336 fps=3.8 q=24.8 size=N/A time=00:00:06.72 bitrate=N/A    frame=  339 fps=3.8 q=24.8 size=N/A time=00:00:06.78 bitrate=N/A    frame=  342 fps=3.8 q=24.8 size=N/A time=00:00:06.84 bitrate=N/A    frame=  344 fps=3.8 q=24.8 size=N/A time=00:00:06.88 bitrate=N/A    frame=  347 fps=3.8 q=24.8 size=N/A time=00:00:06.94 bitrate=N/A    frame=  349 fps=3.8 q=24.8 size=N/A time=00:00:06.98 bitrate=N/A    frame=  352 fps=3.8 q=24.8 size=N/A time=00:00:07.04 bitrate=N/A    frame=  354 fps=3.8 q=24.8 size=N/A time=00:00:07.08 bitrate=N/A    frame=  357 fps=3.8 q=24.8 size=N/A time=00:00:07.14 bitrate=N/A    frame=  360 fps=3.8 q=24.8 size=N/A time=00:00:07.20 bitrate=N/A    frame=  363 fps=3.8 q=24.8 size=N/A time=00:00:07.26 bitrate=N/A    frame=  365 fps=3.8 q=24.8 size=N/A time=00:00:07.30 bitrate=N/A    frame=  368 fps=3.8 q=24.8 size=N/A time=00:00:07.36 bitrate=N/A    frame=  370 fps=3.8 q=24.8 size=N/A time=00:00:07.40 bitrate=N/A    frame=  372 fps=3.8 q=24.8 size=N/A time=00:00:07.44 bitrate=N/A    frame=  374 fps=3.8 q=24.8 size=N/A time=00:00:07.48 bitrate=N/A    frame=  377 fps=3.8 q=24.8 size=N/A time=00:00:07.54 bitrate=N/A    frame=  379 fps=3.8 q=24.8 size=N/A time=00:00:07.58 bitrate=N/A    frame=  382 fps=3.8 q=24.8 size=N/A time=00:00:07.64 bitrate=N/A    frame=  386 fps=3.8 q=24.8 size=N/A time=00:00:07.72 bitrate=N/A    frame=  388 fps=3.8 q=24.8 size=N/A time=00:00:07.76 bitrate=N/A    frame=  391 fps=3.8 q=24.8 size=N/A time=00:00:07.82 bitrate=N/A    frame=  394 fps=3.9 q=24.8 size=N/A time=00:00:07.88 bitrate=N/A    frame=  396 fps=3.8 q=24.8 size=N/A time=00:00:07.92 bitrate=N/A    frame=  399 fps=3.8 q=24.8 size=N/A time=00:00:07.98 bitrate=N/A    frame=  401 fps=3.8 q=24.8 size=N/A time=00:00:08.02 bitrate=N/A    frame=  405 fps=3.9 q=24.8 size=N/A time=00:00:08.10 bitrate=N/A    frame=  408 fps=3.9 q=24.8 size=N/A time=00:00:08.16 bitrate=N/A    frame=  411 fps=3.9 q=24.8 size=N/A time=00:00:08.22 bitrate=N/A    frame=  414 fps=3.9 q=24.8 size=N/A time=00:00:08.28 bitrate=N/A    frame=  417 fps=3.9 q=24.8 size=N/A time=00:00:08.34 bitrate=N/A    frame=  419 fps=3.9 q=24.8 size=N/A time=00:00:08.38 bitrate=N/A    frame=  422 fps=3.9 q=24.8 size=N/A time=00:00:08.44 bitrate=N/A    frame=  424 fps=3.9 q=24.8 size=N/A time=00:00:08.48 bitrate=N/A    frame=  427 fps=3.9 q=24.8 size=N/A time=00:00:08.54 bitrate=N/A    frame=  430 fps=3.9 q=24.8 size=N/A time=00:00:08.60 bitrate=N/A    frame=  433 fps=3.9 q=24.8 size=N/A time=00:00:08.66 bitrate=N/A    frame=  436 fps=3.9 q=24.8 size=N/A time=00:00:08.72 bitrate=N/A    frame=  439 fps=3.9 q=24.8 size=N/A time=00:00:08.78 bitrate=N/A    frame=  443 fps=3.9 q=24.8 size=N/A time=00:00:08.86 bitrate=N/A    frame=  447 fps=3.9 q=24.8 size=N/A time=00:00:08.94 bitrate=N/A    frame=  450 fps=3.9 q=24.8 size=N/A time=00:00:09.00 bitrate=N/A    frame=  454 fps=3.9 q=24.8 size=N/A time=00:00:09.08 bitrate=N/A    frame=  458 fps=3.9 q=24.8 size=N/A time=00:00:09.16 bitrate=N/A    frame=  461 fps=4.0 q=24.8 size=N/A time=00:00:09.22 bitrate=N/A    frame=  464 fps=4.0 q=24.8 size=N/A time=00:00:09.28 bitrate=N/A    frame=  467 fps=4.0 q=24.8 size=N/A time=00:00:09.34 bitrate=N/A    frame=  470 fps=4.0 q=24.8 size=N/A time=00:00:09.40 bitrate=N/A    frame=  474 fps=4.0 q=24.8 size=N/A time=00:00:09.48 bitrate=N/A    frame=  476 fps=4.0 q=24.8 size=N/A time=00:00:09.52 bitrate=N/A    frame=  479 fps=4.0 q=24.8 size=N/A time=00:00:09.58 bitrate=N/A    frame=  482 fps=4.0 q=24.8 size=N/A time=00:00:09.64 bitrate=N/A    frame=  485 fps=4.0 q=24.8 size=N/A time=00:00:09.70 bitrate=N/A    frame=  487 fps=4.0 q=24.8 size=N/A time=00:00:09.74 bitrate=N/A    frame=  490 fps=4.0 q=24.8 size=N/A time=00:00:09.80 bitrate=N/A    frame=  493 fps=4.0 q=24.8 size=N/A time=00:00:09.86 bitrate=N/A    frame=  495 fps=4.0 q=24.8 size=N/A time=00:00:09.90 bitrate=N/A    frame=  497 fps=4.0 q=24.8 size=N/A time=00:00:09.94 bitrate=N/A    frame=  499 fps=4.0 q=24.8 size=N/A time=00:00:09.98 bitrate=N/A    frame=  502 fps=4.0 q=24.8 size=N/A time=00:00:10.04 bitrate=N/A    frame=  505 fps=4.0 q=24.8 size=N/A time=00:00:10.10 bitrate=N/A    frame=  508 fps=4.0 q=24.8 size=N/A time=00:00:10.16 bitrate=N/A    frame=  511 fps=4.0 q=24.8 size=N/A time=00:00:10.22 bitrate=N/A    frame=  515 fps=4.0 q=24.8 size=N/A time=00:00:10.30 bitrate=N/A    frame=  518 fps=4.0 q=24.8 size=N/A time=00:00:10.36 bitrate=N/A    frame=  521 fps=4.0 q=24.8 size=N/A time=00:00:10.42 bitrate=N/A    frame=  524 fps=4.0 q=24.8 size=N/A time=00:00:10.48 bitrate=N/A    frame=  527 fps=4.0 q=24.8 size=N/A time=00:00:10.54 bitrate=N/A    frame=  530 fps=4.0 q=24.8 size=N/A time=00:00:10.60 bitrate=N/A    frame=  532 fps=4.0 q=24.8 size=N/A time=00:00:10.64 bitrate=N/A    frame=  535 fps=4.0 q=24.8 size=N/A time=00:00:10.70 bitrate=N/A    frame=  538 fps=4.0 q=24.8 size=N/A time=00:00:10.76 bitrate=N/A    frame=  540 fps=4.0 q=24.8 size=N/A time=00:00:10.80 bitrate=N/A    frame=  543 fps=4.0 q=24.8 size=N/A time=00:00:10.86 bitrate=N/A    frame=  546 fps=4.0 q=24.8 size=N/A time=00:00:10.92 bitrate=N/A    frame=  550 fps=4.0 q=24.8 size=N/A time=00:00:11.00 bitrate=N/A    frame=  553 fps=4.0 q=24.8 size=N/A time=00:00:11.06 bitrate=N/A    frame=  557 fps=4.1 q=24.8 size=N/A time=00:00:11.14 bitrate=N/A    frame=  560 fps=4.1 q=24.8 size=N/A time=00:00:11.20 bitrate=N/A    frame=  563 fps=4.1 q=24.8 size=N/A time=00:00:11.26 bitrate=N/A    frame=  566 fps=4.1 q=24.8 size=N/A time=00:00:11.32 bitrate=N/A    frame=  568 fps=4.1 q=24.8 size=N/A time=00:00:11.36 bitrate=N/A    frame=  571 fps=4.1 q=24.8 size=N/A time=00:00:11.42 bitrate=N/A    frame=  573 fps=4.1 q=24.8 size=N/A time=00:00:11.46 bitrate=N/A    frame=  576 fps=4.1 q=24.8 size=N/A time=00:00:11.52 bitrate=N/A    frame=  578 fps=4.1 q=24.8 size=N/A time=00:00:11.56 bitrate=N/A    frame=  581 fps=4.1 q=24.8 size=N/A time=00:00:11.62 bitrate=N/A    frame=  584 fps=4.1 q=24.8 size=N/A time=00:00:11.68 bitrate=N/A    frame=  587 fps=4.1 q=24.8 size=N/A time=00:00:11.74 bitrate=N/A    frame=  591 fps=4.1 q=24.8 size=N/A time=00:00:11.82 bitrate=N/A    frame=  594 fps=4.1 q=24.8 size=N/A time=00:00:11.88 bitrate=N/A    frame=  597 fps=4.1 q=24.8 size=N/A time=00:00:11.94 bitrate=N/A    frame=  600 fps=4.1 q=24.8 size=N/A time=00:00:12.00 bitrate=N/A    frame=  603 fps=4.1 q=24.8 size=N/A time=00:00:12.06 bitrate=N/A    frame=  606 fps=4.1 q=24.8 size=N/A time=00:00:12.12 bitrate=N/A    frame=  608 fps=4.1 q=24.8 size=N/A time=00:00:12.16 bitrate=N/A    frame=  610 fps=4.1 q=24.8 size=N/A time=00:00:12.20 bitrate=N/A    frame=  613 fps=4.1 q=24.8 size=N/A time=00:00:12.26 bitrate=N/A    frame=  616 fps=4.1 q=24.8 size=N/A time=00:00:12.32 bitrate=N/A    frame=  619 fps=4.1 q=24.8 size=N/A time=00:00:12.38 bitrate=N/A    frame=  621 fps=4.1 q=24.8 size=N/A time=00:00:12.42 bitrate=N/A    frame=  623 fps=4.1 q=24.8 size=N/A time=00:00:12.46 bitrate=N/A    frame=  626 fps=4.1 q=24.8 size=N/A time=00:00:12.52 bitrate=N/A    frame=  628 fps=4.1 q=24.8 size=N/A time=00:00:12.56 bitrate=N/A    frame=  630 fps=4.1 q=24.8 size=N/A time=00:00:12.60 bitrate=N/A    frame=  633 fps=4.1 q=24.8 size=N/A time=00:00:12.66 bitrate=N/A    frame=  635 fps=4.1 q=24.8 size=N/A time=00:00:12.70 bitrate=N/A    frame=  637 fps=4.1 q=24.8 size=N/A time=00:00:12.74 bitrate=N/A    frame=  639 fps=4.1 q=24.8 size=N/A time=00:00:12.78 bitrate=N/A    frame=  641 fps=4.1 q=24.8 size=N/A time=00:00:12.82 bitrate=N/A    frame=  644 fps=4.1 q=24.8 size=N/A time=00:00:12.88 bitrate=N/A    frame=  646 fps=4.1 q=24.8 size=N/A time=00:00:12.92 bitrate=N/A    frame=  648 fps=4.1 q=24.8 size=N/A time=00:00:12.96 bitrate=N/A    frame=  651 fps=4.1 q=24.8 size=N/A time=00:00:13.02 bitrate=N/A    frame=  654 fps=4.1 q=24.8 size=N/A time=00:00:13.08 bitrate=N/A    frame=  657 fps=4.1 q=24.8 size=N/A time=00:00:13.14 bitrate=N/A    frame=  659 fps=4.1 q=24.8 size=N/A time=00:00:13.18 bitrate=N/A    frame=  662 fps=4.1 q=24.8 size=N/A time=00:00:13.24 bitrate=N/A    frame=  665 fps=4.1 q=24.8 size=N/A time=00:00:13.30 bitrate=N/A    frame=  668 fps=4.1 q=24.8 size=N/A time=00:00:13.36 bitrate=N/A    frame=  671 fps=4.1 q=24.8 size=N/A time=00:00:13.42 bitrate=N/A    frame=  674 fps=4.1 q=24.8 size=N/A time=00:00:13.48 bitrate=N/A    frame=  677 fps=4.1 q=24.8 size=N/A time=00:00:13.54 bitrate=N/A    frame=  679 fps=4.1 q=24.8 size=N/A time=00:00:13.58 bitrate=N/A    frame=  682 fps=4.1 q=24.8 size=N/A time=00:00:13.64 bitrate=N/A    frame=  685 fps=4.1 q=24.8 size=N/A time=00:00:13.70 bitrate=N/A    frame=  688 fps=4.1 q=24.8 size=N/A time=00:00:13.76 bitrate=N/A    frame=  691 fps=4.1 q=24.8 size=N/A time=00:00:13.82 bitrate=N/A    frame=  694 fps=4.1 q=24.8 size=N/A time=00:00:13.88 bitrate=N/A    frame=  696 fps=4.1 q=24.8 size=N/A time=00:00:13.92 bitrate=N/A    frame=  700 fps=4.1 q=24.8 size=N/A time=00:00:14.00 bitrate=N/A    frame=  703 fps=4.1 q=24.8 size=N/A time=00:00:14.06 bitrate=N/A    frame=  705 fps=4.1 q=24.8 size=N/A time=00:00:14.10 bitrate=N/A    frame=  708 fps=4.1 q=24.8 size=N/A time=00:00:14.16 bitrate=N/A    frame=  710 fps=4.1 q=24.8 size=N/A time=00:00:14.20 bitrate=N/A    frame=  713 fps=4.1 q=24.8 size=N/A time=00:00:14.26 bitrate=N/A    frame=  715 fps=4.1 q=24.8 size=N/A time=00:00:14.30 bitrate=N/A    frame=  717 fps=4.1 q=24.8 size=N/A time=00:00:14.34 bitrate=N/A    frame=  719 fps=4.1 q=24.8 size=N/A time=00:00:14.38 bitrate=N/A    frame=  722 fps=4.1 q=24.8 size=N/A time=00:00:14.44 bitrate=N/A    frame=  725 fps=4.1 q=24.8 size=N/A time=00:00:14.50 bitrate=N/A    frame=  727 fps=4.1 q=24.8 size=N/A time=00:00:14.54 bitrate=N/A    frame=  730 fps=4.1 q=24.8 size=N/A time=00:00:14.60 bitrate=N/A    frame=  732 fps=4.1 q=24.8 size=N/A time=00:00:14.64 bitrate=N/A    frame=  734 fps=4.1 q=24.8 size=N/A time=00:00:14.68 bitrate=N/A    frame=  736 fps=4.1 q=24.8 size=N/A time=00:00:14.72 bitrate=N/A    frame=  738 fps=4.1 q=24.8 size=N/A time=00:00:14.76 bitrate=N/A    frame=  740 fps=4.1 q=24.8 size=N/A time=00:00:14.80 bitrate=N/A    frame=  742 fps=4.1 q=24.8 size=N/A time=00:00:14.84 bitrate=N/A    frame=  745 fps=4.1 q=24.8 size=N/A time=00:00:14.90 bitrate=N/A    frame=  748 fps=4.1 q=24.8 size=N/A time=00:00:14.96 bitrate=N/A    frame=  750 fps=4.1 q=24.8 size=N/A time=00:00:15.00 bitrate=N/A    frame=  753 fps=4.1 q=24.8 size=N/A time=00:00:15.06 bitrate=N/A    frame=  756 fps=4.1 q=24.8 size=N/A time=00:00:15.12 bitrate=N/A    frame=  758 fps=4.1 q=24.8 size=N/A time=00:00:15.16 bitrate=N/A    frame=  761 fps=4.1 q=24.8 size=N/A time=00:00:15.22 bitrate=N/A    frame=  763 fps=4.1 q=24.8 size=N/A time=00:00:15.26 bitrate=N/A    frame=  766 fps=4.1 q=24.8 size=N/A time=00:00:15.32 bitrate=N/A    frame=  768 fps=4.1 q=24.8 size=N/A time=00:00:15.36 bitrate=N/A    frame=  770 fps=4.1 q=24.8 size=N/A time=00:00:15.40 bitrate=N/A    frame=  772 fps=4.1 q=24.8 size=N/A time=00:00:15.44 bitrate=N/A    frame=  775 fps=4.1 q=24.8 size=N/A time=00:00:15.50 bitrate=N/A    frame=  777 fps=4.1 q=24.8 size=N/A time=00:00:15.54 bitrate=N/A    frame=  779 fps=4.1 q=24.8 size=N/A time=00:00:15.58 bitrate=N/A    frame=  782 fps=4.1 q=24.8 size=N/A time=00:00:15.64 bitrate=N/A    frame=  785 fps=4.1 q=24.8 size=N/A time=00:00:15.70 bitrate=N/A    frame=  788 fps=4.1 q=24.8 size=N/A time=00:00:15.76 bitrate=N/A    frame=  790 fps=4.1 q=24.8 size=N/A time=00:00:15.80 bitrate=N/A    frame=  793 fps=4.1 q=24.8 size=N/A time=00:00:15.86 bitrate=N/A    frame=  795 fps=4.1 q=24.8 size=N/A time=00:00:15.90 bitrate=N/A    frame=  797 fps=4.1 q=24.8 size=N/A time=00:00:15.94 bitrate=N/A    frame=  799 fps=4.1 q=24.8 size=N/A time=00:00:15.98 bitrate=N/A    frame=  801 fps=4.1 q=24.8 size=N/A time=00:00:16.02 bitrate=N/A    frame=  804 fps=4.1 q=24.8 size=N/A time=00:00:16.08 bitrate=N/A    frame=  807 fps=4.1 q=24.8 size=N/A time=00:00:16.14 bitrate=N/A    frame=  810 fps=4.1 q=24.8 size=N/A time=00:00:16.20 bitrate=N/A    frame=  813 fps=4.1 q=24.8 size=N/A time=00:00:16.26 bitrate=N/A    frame=  815 fps=4.1 q=24.8 size=N/A time=00:00:16.30 bitrate=N/A    frame=  818 fps=4.1 q=24.8 size=N/A time=00:00:16.36 bitrate=N/A    frame=  821 fps=4.1 q=24.8 size=N/A time=00:00:16.42 bitrate=N/A    frame=  825 fps=4.1 q=24.8 size=N/A time=00:00:16.50 bitrate=N/A    frame=  827 fps=4.1 q=24.8 size=N/A time=00:00:16.54 bitrate=N/A    frame=  829 fps=4.1 q=24.8 size=N/A time=00:00:16.58 bitrate=N/A    frame=  832 fps=4.1 q=24.8 size=N/A time=00:00:16.64 bitrate=N/A    frame=  835 fps=4.1 q=24.8 size=N/A time=00:00:16.70 bitrate=N/A    frame=  837 fps=4.1 q=24.8 size=N/A time=00:00:16.74 bitrate=N/A    frame=  839 fps=4.1 q=24.8 size=N/A time=00:00:16.78 bitrate=N/A    frame=  842 fps=4.1 q=24.8 size=N/A time=00:00:16.84 bitrate=N/A    frame=  845 fps=4.1 q=24.8 size=N/A time=00:00:16.90 bitrate=N/A    frame=  847 fps=4.1 q=24.8 size=N/A time=00:00:16.94 bitrate=N/A    frame=  850 fps=4.1 q=24.8 size=N/A time=00:00:17.00 bitrate=N/A    frame=  853 fps=4.1 q=24.8 size=N/A time=00:00:17.06 bitrate=N/A    frame=  855 fps=4.1 q=24.8 size=N/A time=00:00:17.10 bitrate=N/A    frame=  857 fps=4.1 q=24.8 size=N/A time=00:00:17.14 bitrate=N/A    frame=  860 fps=4.1 q=24.8 size=N/A time=00:00:17.20 bitrate=N/A    frame=  863 fps=4.1 q=24.8 size=N/A time=00:00:17.26 bitrate=N/A    frame=  865 fps=4.1 q=24.8 size=N/A time=00:00:17.30 bitrate=N/A    frame=  867 fps=4.1 q=24.8 size=N/A time=00:00:17.34 bitrate=N/A    frame=  869 fps=4.1 q=24.8 size=N/A time=00:00:17.38 bitrate=N/A    frame=  871 fps=4.1 q=24.8 size=N/A time=00:00:17.42 bitrate=N/A    frame=  875 fps=4.1 q=24.8 size=N/A time=00:00:17.50 bitrate=N/A    frame=  877 fps=4.1 q=24.8 size=N/A time=00:00:17.54 bitrate=N/A    frame=  880 fps=4.1 q=24.8 size=N/A time=00:00:17.60 bitrate=N/A    frame=  883 fps=4.1 q=24.8 size=N/A time=00:00:17.66 bitrate=N/A    frame=  886 fps=4.1 q=24.8 size=N/A time=00:00:17.72 bitrate=N/A    frame=  889 fps=4.1 q=24.8 size=N/A time=00:00:17.78 bitrate=N/A    frame=  892 fps=4.1 q=24.8 size=N/A time=00:00:17.84 bitrate=N/A    frame=  895 fps=4.1 q=24.8 size=N/A time=00:00:17.90 bitrate=N/A    frame=  898 fps=4.1 q=24.8 size=N/A time=00:00:17.96 bitrate=N/A    frame=  901 fps=4.1 q=24.8 size=N/A time=00:00:18.02 bitrate=N/A    frame=  903 fps=4.1 q=24.8 size=N/A time=00:00:18.06 bitrate=N/A    frame=  905 fps=4.1 q=24.8 size=N/A time=00:00:18.10 bitrate=N/A    frame=  908 fps=4.1 q=24.8 size=N/A time=00:00:18.16 bitrate=N/A    frame=  911 fps=4.1 q=24.8 size=N/A time=00:00:18.22 bitrate=N/A    frame=  914 fps=4.1 q=24.8 size=N/A time=00:00:18.28 bitrate=N/A    frame=  917 fps=4.1 q=24.8 size=N/A time=00:00:18.34 bitrate=N/A    frame=  919 fps=4.1 q=24.8 size=N/A time=00:00:18.38 bitrate=N/A    frame=  922 fps=4.1 q=24.8 size=N/A time=00:00:18.44 bitrate=N/A    frame=  925 fps=4.1 q=24.8 size=N/A time=00:00:18.50 bitrate=N/A    frame=  927 fps=4.1 q=24.8 size=N/A time=00:00:18.54 bitrate=N/A    frame=  930 fps=4.1 q=24.8 size=N/A time=00:00:18.60 bitrate=N/A    frame=  933 fps=4.1 q=24.8 size=N/A time=00:00:18.66 bitrate=N/A    frame=  936 fps=4.1 q=24.8 size=N/A time=00:00:18.72 bitrate=N/A    frame=  938 fps=4.1 q=24.8 size=N/A time=00:00:18.76 bitrate=N/A    frame=  942 fps=4.1 q=24.8 size=N/A time=00:00:18.84 bitrate=N/A    frame=  944 fps=4.1 q=24.8 size=N/A time=00:00:18.88 bitrate=N/A    frame=  947 fps=4.1 q=24.8 size=N/A time=00:00:18.94 bitrate=N/A    frame=  949 fps=4.1 q=24.8 size=N/A time=00:00:18.98 bitrate=N/A    frame=  952 fps=4.1 q=24.8 size=N/A time=00:00:19.04 bitrate=N/A    frame=  955 fps=4.1 q=24.8 size=N/A time=00:00:19.10 bitrate=N/A    frame=  958 fps=4.1 q=24.8 size=N/A time=00:00:19.16 bitrate=N/A    frame=  961 fps=4.1 q=24.8 size=N/A time=00:00:19.22 bitrate=N/A    frame=  963 fps=4.1 q=24.8 size=N/A time=00:00:19.26 bitrate=N/A    frame=  966 fps=4.1 q=24.8 size=N/A time=00:00:19.32 bitrate=N/A    frame=  969 fps=4.1 q=24.8 size=N/A time=00:00:19.38 bitrate=N/A    frame=  972 fps=4.1 q=24.8 size=N/A time=00:00:19.44 bitrate=N/A    frame=  975 fps=4.1 q=24.8 size=N/A time=00:00:19.50 bitrate=N/A    frame=  978 fps=4.1 q=24.8 size=N/A time=00:00:19.56 bitrate=N/A    frame=  981 fps=4.1 q=24.8 size=N/A time=00:00:19.62 bitrate=N/A    frame=  984 fps=4.1 q=24.8 size=N/A time=00:00:19.68 bitrate=N/A    frame=  987 fps=4.1 q=24.8 size=N/A time=00:00:19.74 bitrate=N/A    frame=  989 fps=4.1 q=24.8 size=N/A time=00:00:19.78 bitrate=N/A    frame=  992 fps=4.1 q=24.8 size=N/A time=00:00:19.84 bitrate=N/A    frame=  995 fps=4.1 q=24.8 size=N/A time=00:00:19.90 bitrate=N/A    frame=  997 fps=4.1 q=24.8 size=N/A time=00:00:19.94 bitrate=N/A    frame=  999 fps=4.1 q=24.8 size=N/A time=00:00:19.98 bitrate=N/A    frame= 1001 fps=4.1 q=24.8 size=N/A time=00:00:20.02 bitrate=N/A    frame= 1004 fps=4.1 q=24.8 size=N/A time=00:00:20.08 bitrate=N/A    frame= 1006 fps=4.1 q=24.8 size=N/A time=00:00:20.12 bitrate=N/A    frame= 1008 fps=4.1 q=24.8 size=N/A time=00:00:20.16 bitrate=N/A    frame= 1011 fps=4.1 q=24.8 size=N/A time=00:00:20.22 bitrate=N/A    frame= 1013 fps=4.1 q=24.8 size=N/A time=00:00:20.26 bitrate=N/A    frame= 1015 fps=4.1 q=24.8 size=N/A time=00:00:20.30 bitrate=N/A    frame= 1018 fps=4.1 q=24.8 size=N/A time=00:00:20.36 bitrate=N/A    frame= 1020 fps=4.1 q=24.8 size=N/A time=00:00:20.40 bitrate=N/A    frame= 1023 fps=4.1 q=24.8 size=N/A time=00:00:20.46 bitrate=N/A    frame= 1026 fps=4.1 q=24.8 size=N/A time=00:00:20.52 bitrate=N/A    frame= 1029 fps=4.1 q=24.8 size=N/A time=00:00:20.58 bitrate=N/A    frame= 1032 fps=4.1 q=24.8 size=N/A time=00:00:20.64 bitrate=N/A    frame= 1035 fps=4.1 q=24.8 size=N/A time=00:00:20.70 bitrate=N/A    frame= 1038 fps=4.1 q=24.8 size=N/A time=00:00:20.76 bitrate=N/A    frame= 1041 fps=4.1 q=24.8 size=N/A time=00:00:20.82 bitrate=N/A    frame= 1043 fps=4.1 q=24.8 size=N/A time=00:00:20.86 bitrate=N/A    frame= 1046 fps=4.1 q=24.8 size=N/A time=00:00:20.92 bitrate=N/A    frame= 1049 fps=4.1 q=24.8 size=N/A time=00:00:20.98 bitrate=N/A    frame= 1051 fps=4.1 q=24.8 size=N/A time=00:00:21.02 bitrate=N/A    frame= 1053 fps=4.1 q=24.8 size=N/A time=00:00:21.06 bitrate=N/A    frame= 1056 fps=4.1 q=24.8 size=N/A time=00:00:21.12 bitrate=N/A    frame= 1059 fps=4.1 q=24.8 size=N/A time=00:00:21.18 bitrate=N/A    frame= 1062 fps=4.1 q=24.8 size=N/A time=00:00:21.24 bitrate=N/A    frame= 1065 fps=4.1 q=24.8 size=N/A time=00:00:21.30 bitrate=N/A    frame= 1067 fps=4.1 q=24.8 size=N/A time=00:00:21.34 bitrate=N/A    frame= 1069 fps=4.1 q=24.8 size=N/A time=00:00:21.38 bitrate=N/A    frame= 1072 fps=4.1 q=24.8 size=N/A time=00:00:21.44 bitrate=N/A    frame= 1075 fps=4.1 q=24.8 size=N/A time=00:00:21.50 bitrate=N/A    frame= 1077 fps=4.1 q=24.8 size=N/A time=00:00:21.54 bitrate=N/A    frame= 1080 fps=4.1 q=24.8 size=N/A time=00:00:21.60 bitrate=N/A    frame= 1083 fps=4.1 q=24.8 size=N/A time=00:00:21.66 bitrate=N/A    frame= 1086 fps=4.1 q=24.8 size=N/A time=00:00:21.72 bitrate=N/A    frame= 1088 fps=4.1 q=24.8 size=N/A time=00:00:21.76 bitrate=N/A    frame= 1090 fps=4.1 q=24.8 size=N/A time=00:00:21.80 bitrate=N/A    frame= 1092 fps=4.1 q=24.8 size=N/A time=00:00:21.84 bitrate=N/A    frame= 1094 fps=4.1 q=24.8 size=N/A time=00:00:21.88 bitrate=N/A    frame= 1096 fps=4.1 q=24.8 size=N/A time=00:00:21.92 bitrate=N/A    frame= 1099 fps=4.1 q=24.8 size=N/A time=00:00:21.98 bitrate=N/A    frame= 1102 fps=4.1 q=24.8 size=N/A time=00:00:22.04 bitrate=N/A    frame= 1106 fps=4.1 q=24.8 size=N/A time=00:00:22.12 bitrate=N/A    frame= 1107 fps=4.1 q=24.8 Lsize=N/A time=00:00:22.14 bitrate=N/A    
video:994365kB audio:0kB subtitle:0kB other streams:0kB global headers:0kB muxing overhead: unknown
+ turkic load DJI_0043_30m_szarvasragas_homokmegy_20180603_napos_napraforgo_T3 /home/horvathandras/vatic/vatic/videos/DJI_0043_30m_szarvasragas_homokmegy_20180603_napos_napraforgo_T3 $'Pozit\303\255vROI' $'Negat\303\255vROI' $'T\303\272r\303\241s' '~Friss' '~1-2Hetes' '~Régebbi' '~Egyéb1' '~Egyéb2' '~Egyéb3' $'R\303\241g\303\241s' '~Friss' '~1-2Hetes' '~Régebbi' '~Egyéb1' '~Egyéb2' '~Egyéb3' $'T\303\266r\303\251s' '~Friss' '~1-2Hetes' '~Régebbi' '~Egyéb1' '~Egyéb2' '~Egyéb3' $'Tapos\303\241s' '~Friss' '~1-2Hetes' '~Régebbi' '~Egyéb1' '~Egyéb2' '~Egyéb3' $'Eg\303\251szs\303\251gesN\303\266v\303\251ny' $'Egy\303\251b1' $'Egy\303\251b2' $'Egy\303\251b3' $'Egy\303\251b4' $'Egy\303\251b5' Bizonytalan $'M\305\261vel\305\221\303\272t' $'Gktapos\303\241s' $'Vet\305\221hiba' $'Sz\303\251ld\303\266nt\303\251s' $'J\303\251gk\303\241r' $'Belv\303\255z' $'Asz\303\241ly' $'Er\303\263zi\303\263' $'Egyszik\305\261Gyom' $'K\303\251tszik\305\261Gyom' $'Egy\303\251bN\303\266vv\303\251delmiPR' --offline --title '$filenameNoDot Video' --length 1000 --description 'vatic annotation'
+ turkic publish --offline
+ mkdir /home/horvathandras/vatic/vatic/public/videothumbnails/DJI_0043_30m_szarvasragas_homokmegy_20180603_napos_napraforgo_T3
+ cp /home/horvathandras/vatic/vatic/videos/DJI_0043_30m_szarvasragas_homokmegy_20180603_napos_napraforgo_T3/0/0/31.jpg /home/horvathandras/vatic/vatic/public/videothumbnails/DJI_0043_30m_szarvasragas_homokmegy_20180603_napos_napraforgo_T3/thumb.jpg
